<?xml version="1.0" encoding="UTF-8"?><svg xmlns="http://www.w3.org/2000/svg" viewBox="0 0 680 362" width="1600" height="852"><style>text{font-family:system-ui,-apple-system,'Segoe UI','PingFang SC','Microsoft YaHei',sans-serif}.box{fill:#f3f3f1;stroke:#d8d8d3;stroke-width:1}.box-danger{fill:#fbeeec;stroke:#d98c82;stroke-width:1.2;stroke-dasharray:6 4}.chip{fill:#ffffff;stroke:#dcdcd6;stroke-width:1}.chip-danger{fill:#fbeeec;stroke:#d98c82;stroke-width:1}.chip-ok{fill:#edf5ef;stroke:#7bb892;stroke-width:1}.badge{fill:#b3382c}.t{fill:#20201e}.t-inv{fill:#ffffff}.t-dim{fill:#6f6f68}.t-danger{fill:#a83226}.t-ok{fill:#1c7c46}.axis{stroke:#9a9a92;stroke-width:1;fill:none}.grid{stroke:#e3e3de;stroke-width:1}.line{stroke:#9a9a92;stroke-width:1.4;fill:none;marker-end:url(#arr)}.dot{fill:#8a63d2;stroke:#ffffff;stroke-width:1}.ring-done{fill:#1c7c46}.ring-active{fill:#b3382c}.ring-todo{fill:#ffffff;stroke:#9a9a92;stroke-width:1.5}@media (prefers-color-scheme:dark){.box{fill:#2b2b29;stroke:#4a4a45}.box-danger{fill:#3a2a28;stroke:#a05548}.chip{fill:#343431;stroke:#52524c}.chip-danger{fill:#3a2a28;stroke:#a05548}.chip-ok{fill:#25332a;stroke:#3f7a55}.badge{fill:#d05a4c}.t{fill:#e8e8e2}.t-dim{fill:#9a9a92}.t-danger{fill:#e08a7e}.t-ok{fill:#5cb884}.axis{stroke:#8a8a82}.grid{stroke:#3d3d3a}.line{stroke:#8a8a82}.dot{stroke:#343431}.ring-todo{fill:#2b2b29;stroke:#8a8a82}}</style><defs><marker id="arr" viewBox="0 0 10 10" refX="9" refY="5" markerWidth="7" markerHeight="7" orient="auto-start-reverse"><path d="M0 0L10 5L0 10z" fill="#9a9a92"/></marker></defs><text class="t" x="32" y="36" font-size="17" font-weight="600">单题耗时 p90 (秒)</text><line class="axis" x1="82" y1="284" x2="648" y2="284"/><text class="t-dim" x="74" y="288" font-size="12" text-anchor="end">0</text><line class="grid" x1="82" y1="214" x2="648" y2="214"/><text class="t-dim" x="74" y="218" font-size="12" text-anchor="end">20</text><line class="grid" x1="82" y1="144" x2="648" y2="144"/><text class="t-dim" x="74" y="148" font-size="12" text-anchor="end">40</text><line class="grid" x1="82" y1="74" x2="648" y2="74"/><text class="t-dim" x="74" y="78" font-size="12" text-anchor="end">60</text><rect x="100.00" y="176" width="58.00" height="108" rx="4" fill="#8a63d2"/><text class="t" x="129" y="169" font-size="12" font-weight="600" text-anchor="middle">30.9</text><rect x="195.00" y="165" width="58.00" height="119" rx="4" fill="#8a63d2"/><text class="t" x="224" y="158" font-size="12" font-weight="600" text-anchor="middle">34.1</text><rect x="289.00" y="160" width="58.00" height="124" rx="4" fill="#8a63d2"/><text class="t" x="318" y="153" font-size="12" font-weight="600" text-anchor="middle">35.3</text><rect x="383.00" y="141" width="58.00" height="143" rx="4" fill="#8a63d2"/><text class="t" x="412" y="134" font-size="12" font-weight="600" text-anchor="middle">40.9</text><rect x="478.00" y="167" width="58.00" height="117" rx="4" fill="#8a63d2"/><text class="t" x="507" y="160" font-size="12" font-weight="600" text-anchor="middle">33.3</text><rect x="572.00" y="165" width="58.00" height="119" rx="4" fill="#8a63d2"/><text class="t" x="601" y="158" font-size="12" font-weight="600" text-anchor="middle">33.9</text><text class="t-dim" x="129" y="304" font-size="12" text-anchor="end" transform="rotate(-45 129 302)">text</text><text class="t-dim" x="224" y="304" font-size="12" text-anchor="end" transform="rotate(-45 224 302)">text-image</text><text class="t-dim" x="318" y="304" font-size="12" text-anchor="end" transform="rotate(-45 318 302)">text-table</text><text class="t-dim" x="412" y="304" font-size="12" text-anchor="end" transform="rotate(-45 412 302)">text-table-image</text><text class="t-dim" x="507" y="304" font-size="12" text-anchor="end" transform="rotate(-45 507 302)">other</text><text class="t-dim" x="601" y="304" font-size="12" text-anchor="end" transform="rotate(-45 601 302)">总体</text></svg>